<?xml version="1.0" standalone="no"?><!DOCTYPE svg PUBLIC "-//W3C//DTD SVG 1.1//EN" "http://www.w3.org/Graphics/SVG/1.1/DTD/svg11.dtd"><svg width="100%" height="100%" viewBox="0 0 1280 800" version="1.1" xmlns="http://www.w3.org/2000/svg" xmlns:xlink="http://www.w3.org/1999/xlink" xml:space="preserve" style="fill-rule:evenodd;clip-rule:evenodd;stroke-linejoin:round;stroke-miterlimit:1.41421;"><rect x="0" y="0" width="1280" height="800" style="fill:#000;"/><g id="Layer1"><text x="110.431px" y="470.678px" style="font-family:'PinyonScript';font-size:349.377px;fill:#fe7171;">The Art</text><text x="327.018px" y="568.633px" style="font-family:'Arvo';font-size:51.939px;fill:#fff5e7;">O<tspan x="393.488px 450.981px 488.312px 553.388px 612.225px 676.463px 742.934px 815.643px 882.113px " y="568.633px 568.633px 568.633px 568.633px 568.633px 568.633px 568.633px 568.633px 568.633px ">F ALCOHOL</tspan></text><g><rect x="1272.34" y="168.295" width="3.22" height="466.925" style="fill:#fe7171;"/><circle cx="1273.95" cy="168.295" r="6.053" style="fill:#fe7171;"/><circle cx="1273.95" cy="635.22" r="6.053" style="fill:#fe7171;"/></g><g><rect x="4.443" y="174.349" width="3.22" height="466.925" style="fill:#fe7171;"/><circle cx="6.053" cy="174.349" r="6.053" style="fill:#fe7171;"/><circle cx="6.053" cy="641.274" r="6.053" style="fill:#fe7171;"/></g><g><path d="M1224.57,680.308l0,-3.219l-1156.1,0l0,3.219l1156.1,0Z" style="fill:#fe7171;"/><path d="M1230.62,678.699c0,3.34 -2.712,6.053 -6.053,6.053c-3.341,0 -6.053,-2.713 -6.053,-6.053c0,-3.341 2.712,-6.054 6.053,-6.054c3.341,0 6.053,2.713 6.053,6.054Z" style="fill:#fe7171;"/><path d="M74.521,678.699c0,3.34 -2.712,6.053 -6.053,6.053c-3.341,0 -6.053,-2.713 -6.053,-6.053c0,-3.341 2.712,-6.054 6.053,-6.054c3.341,0 6.053,2.713 6.053,6.054Z" style="fill:#fe7171;"/></g><g><path d="M1224.57,122.911l0,-3.219l-1156.1,0l0,3.219l1156.1,0Z" style="fill:#fe7171;"/><path d="M1230.62,121.301c0,3.341 -2.712,6.054 -6.053,6.054c-3.341,0 -6.053,-2.713 -6.053,-6.054c0,-3.34 2.712,-6.053 6.053,-6.053c3.341,0 6.053,2.713 6.053,6.053Z" style="fill:#fe7171;"/><path d="M74.521,121.301c0,3.341 -2.712,6.054 -6.053,6.054c-3.341,0 -6.053,-2.713 -6.053,-6.054c0,-3.34 2.712,-6.053 6.053,-6.053c3.341,0 6.053,2.713 6.053,6.053Z" style="fill:#fe7171;"/></g></g></svg>