<?xml version="1.0" standalone="no"?><!DOCTYPE svg PUBLIC "-//W3C//DTD SVG 1.1//EN" "http://www.w3.org/Graphics/SVG/1.1/DTD/svg11.dtd"><svg width="100%" height="100%" viewBox="0 0 1280 570" version="1.1" xmlns="http://www.w3.org/2000/svg" xmlns:xlink="http://www.w3.org/1999/xlink" xml:space="preserve" style="fill-rule:evenodd;clip-rule:evenodd;stroke-linejoin:round;stroke-miterlimit:1.41421;"><g id="Layer1"><text x="110.431px" y="355.43px" style="font-family:'PinyonScript';font-size:349.377px;fill:#fe7171;">The Art</text><text x="327.018px" y="453.384px" style="font-family:'Arvo';font-size:51.939px;fill:#000;">O<tspan x="393.488px 450.981px 488.312px 553.388px 612.225px 676.463px 742.934px 815.643px 882.113px " y="453.384px 453.384px 453.384px 453.384px 453.384px 453.384px 453.384px 453.384px 453.384px ">F ALCOHOL</tspan></text><g><rect x="1272.34" y="53.047" width="3.22" height="466.925" style="fill:#fe7171;"/><circle cx="1273.95" cy="53.047" r="6.053" style="fill:#fe7171;"/><circle cx="1273.95" cy="519.972" r="6.053" style="fill:#fe7171;"/></g><g><rect x="4.443" y="59.1" width="3.22" height="466.925" style="fill:#fe7171;"/><circle cx="6.053" cy="59.1" r="6.053" style="fill:#fe7171;"/><circle cx="6.053" cy="526.025" r="6.053" style="fill:#fe7171;"/></g><g><path d="M1224.57,565.06l0,-3.219l-1156.1,0l0,3.219l1156.1,0Z" style="fill:#fe7171;"/><path d="M1230.62,563.45c0,3.341 -2.712,6.054 -6.053,6.054c-3.341,0 -6.053,-2.713 -6.053,-6.054c0,-3.341 2.712,-6.053 6.053,-6.053c3.341,0 6.053,2.712 6.053,6.053Z" style="fill:#fe7171;"/><path d="M74.521,563.45c0,3.341 -2.712,6.054 -6.053,6.054c-3.341,0 -6.053,-2.713 -6.053,-6.054c0,-3.341 2.712,-6.053 6.053,-6.053c3.341,0 6.053,2.712 6.053,6.053Z" style="fill:#fe7171;"/></g><g><path d="M1224.57,7.663l0,-3.22l-1156.1,0l0,3.22l1156.1,0Z" style="fill:#fe7171;"/><path d="M1230.62,6.053c0,3.341 -2.712,6.053 -6.053,6.053c-3.341,0 -6.053,-2.712 -6.053,-6.053c0,-3.341 2.712,-6.053 6.053,-6.053c3.341,0 6.053,2.712 6.053,6.053Z" style="fill:#fe7171;"/><path d="M74.521,6.053c0,3.341 -2.712,6.053 -6.053,6.053c-3.341,0 -6.053,-2.712 -6.053,-6.053c0,-3.341 2.712,-6.053 6.053,-6.053c3.341,0 6.053,2.712 6.053,6.053Z" style="fill:#fe7171;"/></g></g></svg>