<?xml version="1.0" standalone="no"?><!DOCTYPE svg PUBLIC "-//W3C//DTD SVG 1.1//EN" "http://www.w3.org/Graphics/SVG/1.1/DTD/svg11.dtd"><svg width="100%" height="100%" viewBox="0 0 200 200" version="1.1" xmlns="http://www.w3.org/2000/svg" xmlns:xlink="http://www.w3.org/1999/xlink" xml:space="preserve" style="fill-rule:evenodd;clip-rule:evenodd;stroke-linejoin:round;stroke-miterlimit:1.41421;"><g id="Layer1"><circle cx="100" cy="100" r="100" style="fill:#000;"/><text x="28.691px" y="109.517px" style="font-family:'PinyonScript';font-size:47.045px;fill:#fe7171;">The Art</text><text x="57.855px" y="122.707px" style="font-family:'Arvo';font-size:6.994px;fill:#f2f2f2;">O<tspan x="66.806px 74.548px 79.574px 88.337px 96.26px 104.91px 113.861px 123.651px 132.602px " y="122.707px 122.707px 122.707px 122.707px 122.707px 122.707px 122.707px 122.707px 122.707px ">F ALCOHOL</tspan></text><g><rect x="185.147" y="68.8" width="0.434" height="62.874" style="fill:#fe7171;"/><circle cx="185.364" cy="68.8" r="0.815" style="fill:#fe7171;"/><circle cx="185.364" cy="131.674" r="0.815" style="fill:#fe7171;"/></g><g><rect x="14.419" y="69.615" width="0.434" height="62.874" style="fill:#fe7171;"/><circle cx="14.636" cy="69.615" r="0.815" style="fill:#fe7171;"/><circle cx="14.636" cy="132.489" r="0.815" style="fill:#fe7171;"/></g><g><path d="M178.716,137.745l0,-0.434l-155.676,0l0,0.434l155.676,0Z" style="fill:#fe7171;"/><path d="M179.531,137.528c0,0.45 -0.366,0.815 -0.815,0.815c-0.45,0 -0.816,-0.365 -0.816,-0.815c0,-0.45 0.366,-0.815 0.816,-0.815c0.449,0 0.815,0.365 0.815,0.815Z" style="fill:#fe7171;"/><path d="M23.855,137.528c0,0.45 -0.365,0.815 -0.815,0.815c-0.45,0 -0.815,-0.365 -0.815,-0.815c0,-0.45 0.365,-0.815 0.815,-0.815c0.45,0 0.815,0.365 0.815,0.815Z" style="fill:#fe7171;"/></g><g><path d="M178.716,62.689l0,-0.434l-155.676,0l0,0.434l155.676,0Z" style="fill:#fe7171;"/><path d="M179.531,62.472c0,0.45 -0.366,0.815 -0.815,0.815c-0.45,0 -0.816,-0.365 -0.816,-0.815c0,-0.45 0.366,-0.815 0.816,-0.815c0.449,0 0.815,0.365 0.815,0.815Z" style="fill:#fe7171;"/><path d="M23.855,62.472c0,0.45 -0.365,0.815 -0.815,0.815c-0.45,0 -0.815,-0.365 -0.815,-0.815c0,-0.45 0.365,-0.815 0.815,-0.815c0.45,0 0.815,0.365 0.815,0.815Z" style="fill:#fe7171;"/></g></g></svg>